# xmcd
#
# Track frame offsets:
#	150
#	22988
#	37276
#	57791
#	90525
#	106202
#	124281
#	140906
#	163421
#
# Disc length: 2372 seconds
# Revision: 0
# Processed by: cddbd v1.5.2PL0 Copyright (c) Steve Scherf et al.
# Submitted via: dBpowerAMP V12.0
#
DISCID=80094209
DTITLE=The Unseen Strangers - Stranger Places
DYEAR=2015
DGENRE=Rock
TTITLE0=Ice Jam
TTITLE1=Wicked Lover
TTITLE2=Old City Jail
TTITLE3=Square Trance
TTITLE4=Buster
TTITLE5=Streets of Our Town
TTITLE6=New Railroad Blues
TTITLE7=Backstairs
TTITLE8=The Best I Can Do
EXTD=
EXTT0=
EXTT1=
EXTT2=
EXTT3=
EXTT4=
EXTT5=
EXTT6=
EXTT7=
EXTT8=
PLAYORDER=
